<?xml version="1.0" encoding="UTF-8" standalone="no"?>
<svg
   version="1.1"
   width="587"
   height="546"
   id="svg2"
   inkscape:version="1.4.2 (f4327f4, 2025-05-13)"
   viewBox="0 0 587 546"
   sodipodi:docname="logo.svg"
   xml:space="preserve"
   xmlns:inkscape="http://www.inkscape.org/namespaces/inkscape"
   xmlns:sodipodi="http://sodipodi.sourceforge.net/DTD/sodipodi-0.dtd"
   xmlns:xlink="http://www.w3.org/1999/xlink"
   xmlns="http://www.w3.org/2000/svg"
   xmlns:svg="http://www.w3.org/2000/svg"
   xmlns:rdf="http://www.w3.org/1999/02/22-rdf-syntax-ns#"
   xmlns:cc="http://creativecommons.org/ns#"
   xmlns:dc="http://purl.org/dc/elements/1.1/"><metadata
     id="metadata412"><rdf:RDF><cc:Work
         rdf:about=""><dc:format>image/svg+xml</dc:format><dc:type
           rdf:resource="http://purl.org/dc/dcmitype/StillImage" /></cc:Work></rdf:RDF></metadata><defs
     id="defs410"><linearGradient
       inkscape:collect="always"
       id="linearGradient4968"><stop
         style="stop-color:#000000;stop-opacity:1;"
         offset="0"
         id="stop4970" /><stop
         style="stop-color:#006d8a;stop-opacity:1"
         offset="1"
         id="stop4972" /></linearGradient><linearGradient
       inkscape:collect="always"
       id="linearGradient4926"><stop
         style="stop-color:#008000;stop-opacity:1;"
         offset="0"
         id="stop4928" /><stop
         style="stop-color:#2b0000;stop-opacity:1"
         offset="1"
         id="stop4930" /></linearGradient><linearGradient
       inkscape:collect="always"
       id="linearGradient4911"><stop
         style="stop-color:#221c24;stop-opacity:1;"
         offset="0"
         id="stop4913" /><stop
         style="stop-color:#008000;stop-opacity:1"
         offset="1"
         id="stop4915" /></linearGradient><linearGradient
       id="linearGradient4779"><stop
         offset="264376025.0000%"
         stop-color="#a92721"
         stop-opacity="1"
         id="stop4781" /><stop
         offset="12.0000%"
         stop-color="#000000"
         stop-opacity="1"
         id="stop4783" /><stop
         offset="1581675980.0000%"
         stop-color="#d6d6d6"
         stop-opacity="1"
         id="stop4785" /><stop
         style="stop-color:#9f0000;stop-opacity:1"
         offset="83886848.0000%"
         stop-color="#000000"
         stop-opacity="1"
         id="stop4787" /></linearGradient><defs
       id="defs6"><linearGradient
         id="grad1"><stop
           id="stop9"
           stop-opacity="1"
           stop-color="#000000"
           offset="0%" /><stop
           id="stop11"
           stop-opacity="1"
           stop-color="#0095da"
           offset="100%" /></linearGradient><linearGradient
         gradientUnits="userSpaceOnUse"
         gradientTransform="matrix(0.92854579,0,0,0.76961548,-130.52432,-114.22495)"
         y2="320.62436"
         x2="451.94565"
         y1="212.27971"
         x1="371.13354"
         id="grad2"
         xlink:href="#grad1" /></defs><defs
       id="defs16"><radialGradient
         gradientUnits="userSpaceOnUse"
         fy="199.8257"
         fx="635.51318"
         gradientTransform="matrix(-0.34092816,-0.15345755,0.37443281,-0.83185663,440.21886,602.16763)"
         r="149.17238"
         cy="199.8257"
         cx="635.51318"
         id="grad3"
         fr="0"
         spreadMethod="pad">
 &gt;
    <stop
   id="stop19"
   stop-opacity="1"
   stop-color="#ffffff"
   offset="0"
   style="stop-color:#fcfc6a;stop-opacity:1;" /><stop
   id="stop21"
   stop-opacity="1"
   stop-color="#bddece"
   offset="1"
   style="stop-color:#ffd733;stop-opacity:1;" /></radialGradient></defs><defs
       id="defs25"><radialGradient
         gradientUnits="userSpaceOnUse"
         fy="208.01514"
         fx="468.15237"
         gradientTransform="matrix(0.88586328,0,0,0.80669698,-130.52432,-114.22495)"
         r="39.691193"
         cy="208.01514"
         cx="468.15237"
         id="grad4">
 &gt;
    <stop
   id="stop28"
   stop-opacity="1"
   stop-color="#fff200"
   offset="0%" /><stop
   id="stop30"
   stop-opacity="1"
   stop-color="#f5821f"
   offset="1"
   style="stop-color:#f5b31f;stop-opacity:1;" /></radialGradient></defs><defs
       id="defs34"><linearGradient
         id="grad5"><stop
           id="stop37"
           stop-opacity="1"
           stop-color="#000000"
           offset="3435993547.0000%" /><stop
           id="stop39"
           stop-opacity="1"
           stop-color="#000000"
           offset="12.0000%" /><stop
           id="stop41"
           stop-opacity="1"
           stop-color="#d6d6d6"
           offset="0.0000%" /></linearGradient><linearGradient
         gradientUnits="userSpaceOnUse"
         gradientTransform="matrix(0.79378675,0,0,0.90027107,-130.52432,-114.22495)"
         y2="204.66074"
         x2="510.86722"
         y1="176.60957"
         x1="510.86722"
         id="grad6"
         xlink:href="#grad5" /></defs><defs
       id="defs46"><radialGradient
         gradientUnits="userSpaceOnUse"
         fy="218.53606"
         fx="453.79398"
         gradientTransform="matrix(0.9188998,0,0,0.77769446,-130.52432,-114.22495)"
         r="12.292219"
         cy="218.53606"
         cx="453.79398"
         id="grad7">
 &gt;
    <stop
   id="stop49"
   stop-opacity="1"
   stop-color="#2e3092"
   offset="0%" /><stop
   id="stop51"
   stop-opacity="1"
   stop-color="#000000"
   offset="100%" /></radialGradient></defs><defs
       id="defs57"><linearGradient
         id="grad8"><stop
           id="stop60"
           stop-opacity="1"
           stop-color="#000000"
           offset="0%" /><stop
           id="stop62"
           stop-opacity="1"
           stop-color="#0095da"
           offset="100%" /></linearGradient><linearGradient
         gradientUnits="userSpaceOnUse"
         gradientTransform="matrix(0.87573772,0,0,0.81602428,-130.52432,-114.22495)"
         y2="213.48808"
         x2="472.80316"
         y1="205.90852"
         x1="472.80316"
         id="grad9"
         xlink:href="#grad8" /></defs><defs
       id="defs69"><linearGradient
         id="grad10"><stop
           id="stop72"
           stop-opacity="1"
           stop-color="#fff200"
           offset="2643760.25"
           style="stop-color:#d9ffc9;stop-opacity:1;" /><stop
           id="stop74"
           stop-opacity="1"
           stop-color="#000000"
           offset="0.12"
           style="stop-color:#0dff23;stop-opacity:1;" /><stop
           id="stop76"
           stop-opacity="1"
           stop-color="#d6d6d6"
           offset="30374090"
           style="stop-color:#63ff2d;stop-opacity:1;" /><stop
           id="stop78"
           stop-opacity="1"
           stop-color="#000000"
           offset="838868.5"
           style="stop-color:#075000;stop-opacity:1;" /></linearGradient><linearGradient
         gradientUnits="userSpaceOnUse"
         gradientTransform="matrix(1.3876778,0,0,0.51497778,-130.52432,-114.22495)"
         y2="237.43959"
         x2="391.31656"
         y1="358.28354"
         x1="358.55804"
         id="grad11"
         xlink:href="#grad10" /></defs><defs
       id="defs83"><linearGradient
         id="grad12"><stop
           id="stop86"
           stop-opacity="1"
           stop-color="#f5821f"
           offset="0%" /><stop
           id="stop88"
           stop-opacity="1"
           stop-color="#a92721"
           offset="100%"
           style="stop-color:#501644;stop-opacity:1" /></linearGradient><linearGradient
         gradientUnits="userSpaceOnUse"
         gradientTransform="matrix(1.7274406,0,0,0.41368906,-130.52432,-114.22495)"
         y2="410.21301"
         x2="381.30585"
         y1="292.2338"
         x1="267.56943"
         id="grad13"
         xlink:href="#grad12" /></defs><defs
       id="defs93"><linearGradient
         id="grad14"><stop
           id="stop96"
           stop-opacity="1"
           stop-color="#f5821f"
           offset="0%"
           style="stop-color:#f5b61f;stop-opacity:1" /><stop
           id="stop98"
           stop-opacity="1"
           stop-color="#fff200"
           offset="100%"
           style="stop-color:#800033;stop-opacity:1" /></linearGradient><linearGradient
         gradientUnits="userSpaceOnUse"
         gradientTransform="matrix(1.3681926,0,0,0.52231188,-130.52432,-114.22495)"
         y2="420.44623"
         x2="352.87769"
         y1="268.31616"
         x1="352.87769"
         id="grad15"
         xlink:href="#grad14" /></defs><defs
       id="defs103"><linearGradient
         id="grad16"><stop
           id="stop106"
           stop-opacity="1"
           stop-color="#ffffff"
           offset="0"
           style="stop-color:#8edfff;stop-opacity:1;" /><stop
           id="stop108"
           stop-opacity="1"
           stop-color="#fff200"
           offset="1"
           style="stop-color:#2fa8ff;stop-opacity:0.63450295;" /></linearGradient><linearGradient
         gradientUnits="userSpaceOnUse"
         gradientTransform="matrix(2.0227773,0,0,0.35328814,-130.52432,-114.22495)"
         y2="606.93469"
         x2="214.89497"
         y1="420.71472"
         x1="214.14076"
         id="grad17"
         xlink:href="#grad16" /></defs><defs
       id="defs113"><linearGradient
         id="grad18"><stop
           id="stop116"
           stop-opacity="1"
           stop-color="#ffefe0"
           offset="0%" /><stop
           id="stop118"
           stop-opacity="1"
           stop-color="#ffe500"
           offset="100%" /></linearGradient><linearGradient
         gradientUnits="userSpaceOnUse"
         gradientTransform="matrix(2.0437364,0,0,0.34966507,-120.52432,121.77505)"
         y2="547.76453"
         x2="236.23625"
         y1="481.89478"
         x1="236.23625"
         id="grad19"
         xlink:href="#grad18" /></defs><defs
       id="defs123"><linearGradient
         id="grad20"><stop
           id="stop126"
           stop-opacity="1"
           stop-color="#000000"
           offset="0"
           style="stop-color:#d30000;stop-opacity:1;" /><stop
           id="stop128"
           stop-opacity="1"
           stop-color="#ffffff"
           offset="1"
           style="stop-color:#ffbcbc;stop-opacity:1;" /></linearGradient><linearGradient
         gradientUnits="userSpaceOnUse"
         gradientTransform="matrix(0.95694808,0,0,0.74677328,-130.52432,-114.22495)"
         y2="304.57388"
         x2="649.67242"
         y1="207.95142"
         x1="649.67242"
         id="grad21"
         xlink:href="#grad20" /></defs><defs
       id="defs133"><linearGradient
         id="grad22"><stop
           id="stop136"
           stop-opacity="1"
           stop-color="#000000"
           offset="0%" /><stop
           id="stop138"
           stop-opacity="1"
           stop-color="#0095da"
           offset="100%" /></linearGradient><linearGradient
         gradientUnits="userSpaceOnUse"
         gradientTransform="scale(0.82849551,1.2070071)"
         y2="222.91177"
         x2="955.35736"
         y1="158.57462"
         x1="955.35736"
         id="grad23"
         xlink:href="#grad22" /></defs><defs
       id="defs259"><linearGradient
         id="grad46"><stop
           id="stop262"
           stop-opacity="1"
           stop-color="#a92721"
           offset="264376025.0000%" /><stop
           id="stop264"
           stop-opacity="1"
           stop-color="#000000"
           offset="12.0000%" /><stop
           id="stop266"
           stop-opacity="1"
           stop-color="#d6d6d6"
           offset="1581675980.0000%" /><stop
           id="stop268"
           stop-opacity="1"
           stop-color="#000000"
           offset="83886848.0000%"
           style="stop-color:#1c241f;stop-opacity:1" /></linearGradient><linearGradient
         gradientUnits="userSpaceOnUse"
         gradientTransform="scale(2.4290288,0.41168717)"
         y2="693.69318"
         x2="272.81998"
         y1="382.61865"
         x1="260.54584"
         id="grad47"
         xlink:href="#grad46" /></defs><defs
       id="defs273"><linearGradient
         id="grad48"><stop
           id="stop276"
           stop-opacity="1"
           stop-color="#a92721"
           offset="0%" /><stop
           id="stop278"
           stop-opacity="1"
           stop-color="#fff200"
           offset="100%" /></linearGradient><linearGradient
         gradientUnits="userSpaceOnUse"
         gradientTransform="matrix(2.0802235,0,0,0.34353195,-130.52432,-114.22495)"
         y2="492.66544"
         x2="261.86597"
         y1="641.06458"
         x1="272.05423"
         id="grad49"
         xlink:href="#grad48" /></defs><defs
       id="defs285"><linearGradient
         id="grad50"><stop
           id="stop288"
           stop-opacity="1"
           stop-color="#f5821f"
           offset="0%" /><stop
           id="stop290"
           stop-opacity="1"
           stop-color="#a92721"
           offset="100%" /></linearGradient><linearGradient
         gradientUnits="userSpaceOnUse"
         gradientTransform="matrix(2.4730794,0,0,0.2889609,-130.52432,-114.22495)"
         y2="743.81934"
         x2="176.04768"
         y1="637.42572"
         x1="176.04768"
         id="grad51"
         xlink:href="#grad50" /></defs><defs
       id="defs295"><linearGradient
         id="grad52"><stop
           id="stop298"
           stop-opacity="1"
           stop-color="#000000"
           offset="0%" /><stop
           id="stop300"
           stop-opacity="1"
           stop-color="#a5c3d2"
           offset="100%" /></linearGradient><linearGradient
         gradientUnits="userSpaceOnUse"
         gradientTransform="matrix(0.96938814,0,0,0.73719002,-130.52432,-114.22495)"
         y2="308.58524"
         x2="449.3132"
         y1="259.70663"
         x1="449.3132"
         id="grad53"
         xlink:href="#grad52" /></defs><defs
       id="defs305"><linearGradient
         id="grad54"><stop
           id="stop308"
           stop-opacity="1"
           stop-color="#000000"
           offset="0%" /><stop
           id="stop310"
           stop-opacity="1"
           stop-color="#0095da"
           offset="100%" /></linearGradient><linearGradient
         gradientUnits="userSpaceOnUse"
         gradientTransform="matrix(0.93648789,0,0,0.76308864,-130.52432,-114.22495)"
         y2="628.03876"
         x2="162.35979"
         y1="463.46106"
         x1="126.02935"
         id="grad55"
         xlink:href="#grad54" /></defs><defs
       id="defs315"><linearGradient
         id="grad56"><stop
           id="stop318"
           stop-opacity="1"
           stop-color="#000000"
           offset="0%" /><stop
           id="stop320"
           stop-opacity="1"
           stop-color="#0095da"
           offset="100%" /></linearGradient><linearGradient
         gradientUnits="userSpaceOnUse"
         gradientTransform="matrix(1.2888581,0,0,0.55446232,-130.52432,-114.22495)"
         y2="656.13495"
         x2="163.59201"
         y1="560.45453"
         x1="163.59201"
         id="grad57"
         xlink:href="#grad56" /></defs><defs
       id="defs325"><linearGradient
         id="grad58"><stop
           id="stop328"
           stop-opacity="1"
           stop-color="#000000"
           offset="0%" /><stop
           id="stop330"
           stop-opacity="1"
           stop-color="#0095da"
           offset="100%" /></linearGradient><linearGradient
         gradientUnits="userSpaceOnUse"
         gradientTransform="matrix(1.0554933,0,0,0.67705144,-130.52432,-114.22495)"
         y2="817.91791"
         x2="178.87569"
         y1="535.19147"
         x1="180.41064"
         id="grad59"
         xlink:href="#grad58" /></defs><defs
       id="defs335"><linearGradient
         id="grad60"><stop
           id="stop338"
           stop-opacity="1"
           stop-color="#000000"
           offset="0%" /><stop
           id="stop340"
           stop-opacity="1"
           stop-color="#0095da"
           offset="100%" /></linearGradient><linearGradient
         gradientUnits="userSpaceOnUse"
         gradientTransform="matrix(1.187853,0,0,0.60160915,-130.52432,-114.22495)"
         y2="617.82037"
         x2="177.67055"
         y1="535.11908"
         x1="170.85092"
         id="grad61"
         xlink:href="#grad60" /></defs><defs
       id="defs345"><linearGradient
         id="grad62"><stop
           id="stop348"
           stop-opacity="1"
           stop-color="#000000"
           offset="0%" /><stop
           id="stop350"
           stop-opacity="1"
           stop-color="#0095da"
           offset="100%" /></linearGradient><linearGradient
         gradientUnits="userSpaceOnUse"
         gradientTransform="matrix(1.461725,0,0,0.48889035,-130.52432,-114.22495)"
         y2="663.28357"
         x2="161.22295"
         y1="595.83429"
         x1="163.4397"
         id="grad63"
         xlink:href="#grad62" /></defs><defs
       id="defs357"><linearGradient
         id="grad64"><stop
           id="stop360"
           stop-opacity="1"
           stop-color="#4f4e65"
           offset="0%" /><stop
           id="stop362"
           stop-opacity="1"
           stop-color="#000000"
           offset="100%" /></linearGradient><linearGradient
         gradientUnits="userSpaceOnUse"
         gradientTransform="scale(0.53999276,1.8518767)"
         y2="414.37521"
         x2="324.9559"
         y1="296.95578"
         x1="324.9559"
         id="grad65"
         xlink:href="#grad64" /></defs><defs
       id="defs369"><linearGradient
         gradientUnits="userSpaceOnUse"
         y2="307.0787"
         x2="471.7543"
         y1="307.0787"
         x1="346.52954"
         gradientTransform="scale(0.55840502,1.7908149)"
         id="grad66"><stop
           id="stop372"
           stop-opacity="1"
           stop-color="#4f4e65"
           offset="0%" /><stop
           id="stop374"
           stop-opacity="1"
           stop-color="#000000"
           offset="100%" /></linearGradient></defs><defs
       id="defs378"><linearGradient
         id="grad67"><stop
           id="stop381"
           stop-opacity="1"
           stop-color="#4f4e65"
           offset="0%" /><stop
           id="stop383"
           stop-opacity="1"
           stop-color="#000000"
           offset="100%" /></linearGradient><linearGradient
         gradientUnits="userSpaceOnUse"
         gradientTransform="scale(0.32457484,3.0809535)"
         y2="232.21236"
         x2="760.1825"
         y1="180.77937"
         x1="760.1825"
         id="grad68"
         xlink:href="#grad67" /></defs><defs
       id="defs388"><linearGradient
         id="grad69"><stop
           id="stop391"
           stop-opacity="1"
           stop-color="#4f4e65"
           offset="0%" /><stop
           id="stop393"
           stop-opacity="1"
           stop-color="#000000"
           offset="100%" /></linearGradient><linearGradient
         gradientUnits="userSpaceOnUse"
         gradientTransform="scale(0.52149185,1.9175755)"
         y2="404.18253"
         x2="369.71329"
         y1="295.0408"
         x1="369.71329"
         id="grad70"
         xlink:href="#grad69" /></defs><defs
       id="defs398"><linearGradient
         id="grad71"><stop
           id="stop401"
           stop-opacity="1"
           stop-color="#4f4e65"
           offset="0%" /><stop
           id="stop403"
           stop-opacity="1"
           stop-color="#000000"
           offset="100%" /></linearGradient><linearGradient
         gradientUnits="userSpaceOnUse"
         gradientTransform="matrix(1.4571158,0,0,0.49043684,-130.52432,-114.22495)"
         y2="1006.8085"
         x2="149.9529"
         y1="896.88867"
         x1="149.9529"
         id="grad72"
         xlink:href="#grad71" /></defs><radialGradient
       inkscape:collect="always"
       xlink:href="#linearGradient4779"
       id="radialGradient4777"
       cx="678.74847"
       cy="246.07283"
       fx="678.74847"
       fy="246.07283"
       r="161.23938"
       gradientTransform="matrix(0.84535392,0,0,0.14327592,-130.52432,58.53737)"
       gradientUnits="userSpaceOnUse" /><linearGradient
       inkscape:collect="always"
       xlink:href="#linearGradient4911"
       id="linearGradient4917"
       x1="344.16318"
       y1="630.48553"
       x2="333.63306"
       y2="659.40991"
       gradientUnits="userSpaceOnUse"
       gradientTransform="translate(-10,-236)" /><linearGradient
       inkscape:collect="always"
       xlink:href="#linearGradient4926"
       id="linearGradient4932"
       x1="377.35291"
       y1="554.00488"
       x2="342.72012"
       y2="554.00488"
       gradientUnits="userSpaceOnUse" /><linearGradient
       inkscape:collect="always"
       xlink:href="#linearGradient4926"
       id="linearGradient4934"
       x1="354.9859"
       y1="555.44788"
       x2="324.68222"
       y2="555.44788"
       gradientUnits="userSpaceOnUse" /><linearGradient
       inkscape:collect="always"
       xlink:href="#linearGradient4911"
       id="linearGradient4942"
       gradientUnits="userSpaceOnUse"
       x1="344.16318"
       y1="630.48553"
       x2="480.56058"
       y2="572.15015"
       gradientTransform="matrix(-0.06200937,0.14955932,0.14955932,0.06200937,281.86073,493.93503)" /><linearGradient
       inkscape:collect="always"
       xlink:href="#linearGradient4911"
       id="linearGradient4960"
       gradientUnits="userSpaceOnUse"
       gradientTransform="matrix(-0.06200937,0.14955932,0.14955932,0.06200937,281.86073,493.93503)"
       x1="542.01514"
       y1="747.34802"
       x2="274.41171"
       y2="713.21863" /><linearGradient
       inkscape:collect="always"
       xlink:href="#linearGradient4926"
       id="linearGradient4962"
       gradientUnits="userSpaceOnUse"
       x1="354.9859"
       y1="555.44788"
       x2="324.68222"
       y2="555.44788" /><linearGradient
       inkscape:collect="always"
       xlink:href="#linearGradient4926"
       id="linearGradient4964"
       gradientUnits="userSpaceOnUse"
       x1="377.35291"
       y1="554.00488"
       x2="342.72012"
       y2="554.00488" /><linearGradient
       inkscape:collect="always"
       xlink:href="#linearGradient4968"
       id="linearGradient4974"
       x1="67.100998"
       y1="563.38458"
       x2="148.63231"
       y2="590.80219"
       gradientUnits="userSpaceOnUse"
       gradientTransform="translate(-10,-236)" /><linearGradient
       inkscape:collect="always"
       xlink:href="#grad3"
       id="linearGradient8"
       x1="251.67035"
       y1="342.46014"
       x2="349.99771"
       y2="342.46014"
       gradientUnits="userSpaceOnUse"
       gradientTransform="translate(-10,-236)" /></defs><sodipodi:namedview
     pagecolor="#ffffff"
     bordercolor="#666666"
     borderopacity="1"
     objecttolerance="10"
     gridtolerance="10"
     guidetolerance="10"
     inkscape:pageopacity="0"
     inkscape:pageshadow="2"
     inkscape:window-width="1920"
     inkscape:window-height="1009"
     id="namedview408"
     showgrid="false"
     inkscape:zoom="0.49160606"
     inkscape:cx="11.18782"
     inkscape:cy="684.49116"
     inkscape:window-x="-8"
     inkscape:window-y="-8"
     inkscape:window-maximized="1"
     inkscape:current-layer="svg2"
     inkscape:showpageshadow="2"
     inkscape:pagecheckerboard="0"
     inkscape:deskcolor="#d1d1d1" /><path
     inkscape:connector-curvature="0"
     id="path14"
     style="fill:url(#grad2);stroke-width:0.845354"
     d="m 301.53049,35.11764 -4.53516,-3.62826 c -5.45709,-13.09614 -27.56707,-9.25536 -36.69664,-2.38423 -4.62527,3.48125 -5.81265,-1.66307 -11.90833,6.68632 -0.90884,1.24512 -10.3845,4.4048 -14.96615,11.61018 -7.53514,11.85034 -1.54852,3.68861 -8.69472,9.48521 -2.44129,1.98049 -0.68144,3.79716 -4.12059,8.28007 -4.63609,6.04318 -3.57551,5.75136 -7.06209,13.94251 -5.05758,13.22099 -7.04864,49.45202 -17.68717,51.58468 -9.33947,11.48759 19.91671,3.52876 28.64964,-2.48754 4.59348,-3.16475 33.38979,-3.2913 40.1691,-3.2913 25.22224,0 27.45634,1.96325 49.66717,5.97344 5.6648,1.02296 7.08601,-5.67081 9.35747,-11.95889 1.50702,-4.17165 3.77054,-7.14856 6.51692,-11.25386 7.22093,-10.79449 -25.06145,-26.84522 -25.06145,-50.15434 0,-6.82124 0.43206,-16.93616 -3.628,-22.40399 z" /><path
     inkscape:connector-curvature="0"
     id="path23"
     style="fill:url(#linearGradient8);stroke-width:0.845354"
     d="m 299.15073,26.50416 c -1.36059,-0.30238 -2.72094,-0.60451 -4.08153,-0.90698 -13.24137,5.3931 -20.69647,37.61081 -36.73663,42.63703 -2.61435,0.81906 -10.66127,10.61934 -10.66127,13.14331 -0.56799,5.5675 -2.69803,4.82976 -4.34402,9.1174 -0.82862,2.15827 -0.78838,4.34943 -1.01671,6.66832 -0.22435,2.28009 -1.23168,3.84509 -0.14472,6.14961 0.45911,0.97359 1.74447,1.7246 2.71663,3.42715 1.76079,3.08376 -2.21584,5.4702 3.12476,11.76479 1.8504,2.18059 4.90373,3.66097 9.19543,6.4793 3.47753,3.09357 11.5034,9.0605 18.23741,15.64192 5.37552,5.25337 8.13966,10.43792 10.56058,13.99619 1.17589,1.72815 5.71324,8.12554 9.6815,13.54045 3.07058,4.19034 6.14209,5.97505 6.71101,6.37051 3.49453,2.42904 9.40203,6.94052 10.25076,8.16603 1.95489,0.79531 3.60645,1.16963 5.16951,1.8952 5.98832,3.0792 4.47294,-0.66758 4.92055,-1.17107 13.51527,8.90986 13.29835,0.22689 15.57531,-3.13576 5.84427,-8.63165 -4.98446,-30.8145 -9.71836,-38.25158 -13.22074,-20.7712 0.0839,-27.5752 2.08786,-35.44383 -2.4183,-4.08805 -15.19693,-21.72805 -18.82941,-24.42143 -6.33627,-4.69764 -4.0845,-44.3597 -12.24504,-54.75949 -0.15115,-0.30247 -0.30238,-0.6046 -0.45362,-0.90707 z" /><path
     inkscape:connector-curvature="0"
     id="path32"
     style="fill:url(#grad4);stroke-width:0.845354"
     d="m 260.30325,69.4347 c 4.56204,-2.23596 19.97394,-0.83487 40.88622,3.4389 4.17698,-10.05118 5.23232,-18.81462 3.16645,-26.29076 -5.81858,-21.05751 -25.34177,-17.1748 -36.22621,-3.36891 -4.86155,6.1661 -7.6726,14.81136 -7.82646,26.22077 z" /><path
     inkscape:connector-curvature="0"
     id="path44"
     style="fill:url(#grad6);stroke-width:0.845354"
     d="m 275.81102,55.20393 c 0.48811,-2.18034 0.90698,-4.29246 2.30088,-5.9912 1.60863,-1.96037 4.10775,-3.43382 7.68512,-4.10529 6.90772,-1.29686 10.67589,1.11384 11.37296,8.06231 0.2821,3.06965 -0.15816,3.69124 -0.33814,5.00416 -0.41287,3.01182 -0.0577,6.00007 -0.88255,7.20106 -3.9675,5.7769 -10.17721,6.07767 -17.90062,1.42383 -1.33016,-1.04232 -2.23723,-2.31813 -2.71976,-3.82683 -0.68008,-2.12598 -0.21979,-4.63296 0.48211,-7.76804 z" /><path
     inkscape:connector-curvature="0"
     id="path53"
     style="fill:url(#grad7);stroke-width:0.845354"
     d="m 282.16952,52.51891 c 3.65767,-2.88916 6.66646,-3.64474 8.90073,-2.18735 2.23427,1.45747 2.54147,4.58435 0.90512,8.82533 -0.90986,2.35811 -4.18755,2.7463 -9.88109,1.13125 -4.10216,-1.16363 -3.534,-4.9181 0.0752,-7.76923 z" /><path
     inkscape:connector-curvature="0"
     id="path55"
     style="fill:#000000;fill-rule:evenodd;stroke-width:0.845354"
     d="m 286.8084,50.55778 a 5.3931889,5.2423778 0 0 1 5.39319,5.24237 5.3931889,5.2423778 0 1 1 -5.39319,-5.24237 z" /><path
     inkscape:connector-curvature="0"
     id="path65"
     style="fill:url(#grad9);stroke-width:0.845354"
     d="m 286.8461,53.8014 a 3.3188595,3.0925582 0 0 1 3.31886,3.09256 3.3188595,3.0925582 0 1 1 -3.31886,-3.09256 z" /><path
     inkscape:connector-curvature="0"
     id="path67"
     style="fill:#ffffff;fill-rule:evenodd;stroke-width:0.845354"
     d="m 286.31818,53.65067 a 1.5084495,1.5084495 0 0 1 1.50845,1.50845 1.5084495,1.5084495 0 1 1 -1.50845,-1.50845 z" /><path
     inkscape:connector-curvature="0"
     id="path81"
     style="fill:url(#grad11);fill-opacity:1;stroke-width:0.845354"
     d="m 304.16039,76.72664 c 3.07708,-23.67887 0.52817,-42.79588 -7.64674,-57.3511 42.71295,-14.66883 94.85023,-16.63859 156.41203,-5.90902 50.30152,8.89617 90.2734,25.81178 119.91582,50.74693 10.86906,14.34777 13.53395,30.68415 7.99443,49.00923 -2.04905,-0.41389 -5.40883,-3.88964 -10.07991,-10.42744 -3.93927,-1.85378 -5.90894,-2.78062 -5.90894,-2.78062 -26.23573,-17.22308 -84.6294,-27.18726 -175.18143,-29.89214 -21.39878,-0.75389 -49.90039,1.44758 -85.50526,6.60416 z" /><path
     inkscape:connector-curvature="0"
     id="path91"
     style="fill:url(#grad13);stroke-width:0.845354"
     d="m 331.68595,10.52105 c 1.54565,-0.26197 3.10034,-0.51118 4.6656,-0.74644 8.43967,-0.96405 16.65558,-1.81549 24.64452,-2.5528 27.86607,-1.66062 58.50829,0.41963 91.92961,6.24471 49.33799,8.72583 88.73689,25.16762 118.19984,49.32403 0.0803,0.42556 0.16941,0.84713 0.24059,1.27725 -33.57019,-20.80331 -67.46626,-34.88623 -101.68872,-42.24901 -4.37826,-2.9027 -16.90742,-5.03916 -37.58706,-6.41007 -4.35425,-2.04643 -9.59899,-2.82357 -15.73423,-2.33115 -4.31664,-2.21795 -12.08662,-3.18918 -23.30979,-2.91359 -7.27968,-1.82335 -27.73378,-1.70424 -61.36036,0.35707 z" /><path
     inkscape:connector-curvature="0"
     id="path101"
     style="fill:url(#grad15);stroke-width:0.845354"
     d="m 372.98175,29.10777 c 0.64492,10.96635 2.23461,37.73152 -11.47027,37.19117 -5.29217,-0.20872 -18.35974,3.12832 1.04266,3.12832 7.58806,0 18.73625,-0.0802 25.28411,-3.29697 5.35853,-2.6326 27.73911,0.75575 32.15633,3.90275 1.47853,1.05323 19.13214,-1.92318 27.88603,2.17518 2.69338,1.26085 26.8771,0.90123 34.58952,4.08128 6.83857,2.81994 6.1513,-0.6942 -4.80669,-4.48866 -1.43126,-4.13936 -0.14929,-11.86521 1.28393,-19.0667 5.14677,-25.85777 -1.35747,-19.33925 -4.89004,-0.28708 -1.48359,7.99967 -4.54022,16.25083 -12.78969,14.25926 -12.44869,-3.00566 -2.90261,-38.60216 -10.59635,-26.8235 -5.31829,8.14354 0.71864,27.81696 -15.50227,23.19862 -3.73147,-1.06244 1.7728,-42.74836 -3.0387,-27.80665 -1.154,3.58363 0.72658,26.71784 -11.55963,25.14514 -5.48846,-0.69759 -2.05573,-14.47956 -2.05573,-20.88481 0,-14.37118 0.29926,-17.39096 -4.42906,-0.46655 -2.21973,7.94464 3.74103,18.59584 -14.7177,17.87552 -11.01547,-0.42961 9.14419,-27.14381 0.72481,-31.02432 -9.07057,1.21054 -2.02987,26.03749 -12.39374,26.4463 -16.18447,0.63808 -6.45892,-22.48481 -14.71752,-23.2583 z" /><path
     inkscape:connector-curvature="0"
     id="path111"
     style="fill:url(#grad17);stroke-width:0.845354"
     d="m 338.23239,59.94491 c -4.61694,-8.02568 -28.73232,-14.93589 -2.33113,-22.69725 35.05846,-10.30641 165.77007,23.335 196.12968,43.71961 11.24769,3.40247 22.99946,9.81253 35.256,19.23062 -1.05729,-0.21827 -2.10823,-0.43062 -3.16163,-0.64526 C 537.5522,82.61402 479.40268,72.80293 389.66565,70.12248 368.26687,69.36859 347.39332,69.53591 338.23239,59.94491 Z"
     sodipodi:nodetypes="csccccc" /><path
     inkscape:connector-curvature="0"
     id="path131"
     style="fill:url(#grad21);stroke-width:0.845354"
     d="m 498.69703,79.1763 c -6.77881,-5.13882 -8.97453,-13.28211 -6.58404,-24.43242 6.71583,-13.09597 18.46769,-16.7867 35.256,-11.07227 13.58593,4.43912 24.54561,8.0618 32.8808,10.8688 4.38569,3.07802 8.58398,6.30177 12.59171,9.67304 10.86906,14.34777 13.53395,30.68415 7.99443,49.00923 -2.04905,-0.41389 -5.40883,-3.88964 -10.07991,-10.42744 -3.93927,-1.85378 -5.90894,-2.78062 -5.90894,-2.78062 -13.51552,-8.8725 -35.56607,-15.81861 -66.15005,-20.83832 z" /><path
     inkscape:connector-curvature="0"
     id="path141"
     style="fill:#221c24;stroke-width:0.845354"
     d="m 539.37986,47.60825 c 8.19309,2.69482 15.1495,5.00577 20.86993,6.93216 4.38569,3.07802 8.58398,6.30177 12.59171,9.67304 10.86906,14.34777 13.53395,30.68415 7.99443,49.00923 -0.84873,-0.17135 -1.92276,-0.86869 -3.2213,-2.09082 -2.34502,-26.72307 -15.35434,-47.90924 -39.03346,-63.55548 0.26958,0.009 0.53105,0.022 0.79869,0.0319 z" /><g
     id="path143"
     transform="matrix(0.84535392,0,0,0.84535392,-130.52432,-114.22495)"><path
       style="baseline-shift:baseline;display:inline;overflow:visible;vector-effect:none;fill:#838a9c;fill-rule:evenodd;enable-background:accumulate;stop-color:#000000;stop-opacity:1"
       d="m 502.7009,157.8702 c 2.1708,-1.0607 4.2029,-0.3118 6.0967,2.2462 8.1029,9.6749 11.6861,19.8896 10.7496,30.6442 2.1379,2.3258 3.0472,8.797 2.7275,19.4134 1.6367,10.8969 0.0859,16.3519 -4.6528,16.3649 -4.2276,0.0879 -5.7249,-4.5113 -4.4924,-13.7979 2.4367,-11.9786 0.0301,-24.0653 -7.2198,-36.2596 -5.0647,-8.9476 -6.1345,-15.1512 -3.2088,-18.6112 z"
       id="path1" /><path
       style="baseline-shift:baseline;display:inline;overflow:visible;vector-effect:none;fill:#231f20;fill-rule:evenodd;enable-background:accumulate;stop-color:#000000;stop-opacity:1"
       d="m 504.2832,157.13281 c -0.56517,0.0417 -1.13683,0.20382 -1.70703,0.48242 l -0.0527,0.0274 -0.0391,0.0449 c -1.52777,1.80679 -1.99875,4.32533 -1.45507,7.47852 0.54367,3.15318 2.09084,6.96428 4.63281,11.45507 l 0.002,0.002 0.002,0.004 c 7.22193,12.14727 9.60755,24.15027 7.18554,36.05664 l -0.002,0.01 -0.002,0.01 c -0.61903,4.66419 -0.56225,8.16426 0.21093,10.53907 0.3866,1.1874 0.95821,2.10002 1.72852,2.70703 0.77031,0.60701 1.73123,0.8961 2.83984,0.87305 1.23726,-0.004 2.29842,-0.37082 3.13672,-1.09961 0.83923,-0.72961 1.44956,-1.8068 1.84766,-3.20704 0.7935,-2.79097 0.76047,-6.89336 -0.0527,-12.33398 v -0.004 c 0.15994,-5.31601 0.0128,-9.599 -0.44531,-12.85937 -0.44661,-3.17871 -1.18921,-5.35477 -2.28516,-6.61719 0.91656,-10.79616 -2.69242,-21.06465 -10.80273,-30.7539 -0.96788,-1.30734 -1.98666,-2.17546 -3.07422,-2.57618 -0.54378,-0.20035 -1.10279,-0.28002 -1.66797,-0.23828 z m 0.0391,0.56055 c 0.48556,-0.0362 0.96127,0.0349 1.43359,0.20898 0.94464,0.34806 1.88853,1.13215 2.81445,2.38282 l 0.004,0.006 0.006,0.008 c 8.06625,9.63114 11.61528,19.7606 10.68554,30.4375 l -0.0117,0.125 0.084,0.0918 c 0.99386,1.08122 1.76385,3.23542 2.21484,6.44532 0.451,3.20989 0.59901,7.46919 0.43946,12.76758 l -0.002,0.0254 0.004,0.0254 c 0.81537,5.42857 0.82697,9.49003 0.0723,12.14453 -0.37735,1.32725 -0.94067,2.2962 -1.67383,2.93359 -0.73316,0.6374 -1.64115,0.95784 -2.77149,0.96094 h -0.002 -0.004 c -1.00519,0.0209 -1.81563,-0.23113 -2.47656,-0.75195 -0.66093,-0.52083 -1.17889,-1.32332 -1.54101,-2.43555 -0.72307,-2.22087 -0.79971,-5.66037 -0.18946,-10.27149 l 0.002,-0.0176 c 9e-5,-7.5e-4 -10e-5,-0.001 0,-0.002 2.44445,-12.04265 0.0175,-24.20266 -7.25391,-36.43554 l -0.002,-0.006 c -2.52072,-4.45421 -4.04067,-8.21647 -4.56641,-11.26563 -0.5213,-3.02339 -0.0642,-5.3147 1.30469,-6.96484 0.49071,-0.23129 0.96571,-0.37749 1.42969,-0.41211 z"
       id="path2" /></g><g
     id="g145"
     transform="matrix(0.84535392,0,0,0.84535392,-130.52432,-114.22495)"><defs
       id="defs147"><linearGradient
         id="grad24"><stop
           id="stop150"
           stop-opacity="1"
           stop-color="#000000"
           offset="0%" /><stop
           id="stop152"
           stop-opacity="1"
           stop-color="#7b3361"
           offset="100%" /></linearGradient><linearGradient
         gradientUnits="userSpaceOnUse"
         gradientTransform="scale(0.5616732,1.7803947)"
         y2="127.24152"
         x2="892.14532"
         y1="88.409546"
         x1="892.14532"
         id="grad25"
         xlink:href="#grad24" /></defs><path
       inkscape:connector-curvature="0"
       id="path155"
       style="fill:url(#grad25)"
       d="m 502.7009,157.8702 c 2.1708,-1.0607 4.2029,-0.3118 6.0967,2.2462 8.1029,9.6749 11.6861,19.8896 10.7496,30.6442 2.1379,2.3258 3.0472,8.797 2.7275,19.4134 1.6367,10.8969 0.0859,16.3519 -4.6528,16.3649 -4.2276,0.0879 -5.7249,-4.5113 -4.4924,-13.7979 2.4367,-11.9786 0.0301,-24.0653 -7.2198,-36.2596 -5.0647,-8.9476 -6.1345,-15.1512 -3.2088,-18.6112 z" /><g
       id="g157"><defs
         id="defs159"><linearGradient
           id="grad26"><stop
             id="stop162"
             stop-opacity="1"
             stop-color="#000000"
             offset="0%" /><stop
             id="stop164"
             stop-opacity="1"
             stop-color="#763a5f"
             offset="100%" /></linearGradient><linearGradient
           gradientUnits="userSpaceOnUse"
           gradientTransform="scale(0.55140326,1.8135547)"
           y2="124.60226"
           x2="909.79938"
           y1="87.107742"
           x1="909.79938"
           id="grad27"
           xlink:href="#grad26" /></defs><path
         inkscape:connector-curvature="0"
         id="path167"
         style="fill:url(#grad27)"
         d="m 503.0572,158.3286 c -3.7352,4.6128 0.9765,13.6879 3.3398,17.8631 6.7209,11.3042 9.936,23.6182 7.2921,36.6431 -0.4394,3.3112 -1.6846,13.2537 3.9311,13.1372 0.724,-0.002 1.4306,-0.144 2.0602,-0.5128 3.8259,-2.2411 2.556,-11.7227 2.0336,-15.2011 l -0.008,-0.0504 0.002,-0.0508 c 0.1225,-4.0674 0.3833,-15.7909 -2.5781,-19.0128 l -0.1692,-0.1837 0.0218,-0.2491 c 1.0001,-11.4852 -3.3128,-21.5068 -10.6194,-30.231 l -0.021,-0.0266 c -1.3394,-1.8088 -3.0546,-3.1467 -5.2849,-2.1251 z" /><defs
         id="defs169"><linearGradient
           id="grad28"><stop
             id="stop172"
             stop-opacity="1"
             stop-color="#070000"
             offset="0%" /><stop
             id="stop174"
             stop-opacity="1"
             stop-color="#71405e"
             offset="100%" /></linearGradient><linearGradient
           gradientUnits="userSpaceOnUse"
           gradientTransform="scale(0.54056039,1.8499321)"
           y2="121.84562"
           x2="929.09515"
           y1="85.703644"
           x1="929.09515"
           id="grad29"
           xlink:href="#grad28" /></defs><path
         inkscape:connector-curvature="0"
         id="path177"
         style="fill:url(#grad29)"
         d="m 503.4146,158.7912 c -3.3604,4.3857 1.2864,13.2531 3.4697,17.1108 6.7903,11.4213 10.0295,23.8688 7.3641,37.0264 -0.358,2.7082 -1.2198,10.4 1.7059,12.1042 0.4974,0.2897 1.0743,0.3847 1.6645,0.3725 0.6219,-0.002 1.2336,-0.118 1.775,-0.4351 3.4985,-2.0492 2.2329,-11.4772 1.7595,-14.6277 l -0.015,-0.1006 0.003,-0.1018 c 0.1156,-3.8403 0.3642,-15.5729 -2.429,-18.612 l -0.3382,-0.3679 0.0434,-0.4978 c 0.987,-11.3334 -3.2806,-21.2105 -10.4893,-29.8179 l -0.0219,-0.0261 -0.0201,-0.0272 c -1.1429,-1.5437 -2.569,-2.7918 -4.4717,-1.9998 z" /><defs
         id="defs179"><linearGradient
           id="grad30"><stop
             id="stop182"
             stop-opacity="1"
             stop-color="#151416"
             offset="0%" /><stop
             id="stop184"
             stop-opacity="1"
             stop-color="#6b435b"
             offset="100%" /></linearGradient><linearGradient
           gradientUnits="userSpaceOnUse"
           gradientTransform="scale(0.52910836,1.889972)"
           y2="118.96434"
           x2="950.27185"
           y1="84.190971"
           x1="950.27185"
           id="grad31"
           xlink:href="#grad30" /></defs><path
         inkscape:connector-curvature="0"
         id="path187"
         style="fill:url(#grad31)"
         d="m 503.7721,159.2614 c -2.9682,4.1675 1.5987,12.8152 3.5994,16.3509 6.8599,11.5381 10.1228,24.1194 7.4364,37.4096 -0.3174,2.4117 -1.1571,10.0128 1.4315,11.5206 0.406,0.2364 0.8836,0.3056 1.3471,0.2959 l 0.0306,-3e-4 c 0.5196,-0.001 1.0375,-0.0921 1.4901,-0.3571 3.1612,-1.8519 1.9089,-11.2351 1.4857,-14.0545 l -0.023,-0.1511 0.005,-0.1528 c 0.1086,-3.6113 0.3427,-15.3581 -2.2796,-18.2111 l -0.5074,-0.5517 0.0652,-0.7469 c 0.9737,-11.1815 -3.2485,-20.9143 -10.3592,-29.4046 l -0.0326,-0.0389 -0.0303,-0.0411 c -0.9425,-1.273 -2.0948,-2.4205 -3.6587,-1.8669 z" /><defs
         id="defs189"><linearGradient
           id="grad32"><stop
             id="stop192"
             stop-opacity="1"
             stop-color="#232326"
             offset="0%" /><stop
             id="stop194"
             stop-opacity="1"
             stop-color="#654559"
             offset="100%" /></linearGradient><linearGradient
           gradientUnits="userSpaceOnUse"
           gradientTransform="scale(0.51698026,1.9343098)"
           y2="115.94448"
           x2="973.65509"
           y1="82.557442"
           x1="973.65509"
           id="grad33"
           xlink:href="#grad32" /></defs><path
         inkscape:connector-curvature="0"
         id="path197"
         style="fill:url(#grad33)"
         d="m 504.1276,159.7473 c -2.5481,3.9634 1.9165,12.3676 3.7312,15.5753 6.9293,11.6549 10.2163,24.3697 7.5087,37.792 -0.2778,2.126 -1.0814,9.6338 1.1574,10.9381 0.3129,0.1822 0.6939,0.2264 1.0499,0.2191 l 0.0409,-6e-4 c 0.4155,-0.001 0.8418,-0.0669 1.205,-0.2795 2.8119,-1.6472 1.5848,-10.995 1.2115,-13.481 l -0.0303,-0.2013 0.006,-0.2038 c 0.1018,-3.3817 0.3183,-15.1463 -2.1305,-17.8103 l -0.6764,-0.7359 0.0868,-0.9955 c 0.9606,-11.0299 -3.2162,-20.6181 -10.2289,-28.9914 l -0.0436,-0.0521 -0.0405,-0.0547 c -0.7385,-0.9975 -1.6302,-2.0268 -2.8474,-1.7184 z" /><defs
         id="defs199"><linearGradient
           id="grad34"><stop
             id="stop202"
             stop-opacity="1"
             stop-color="#313236"
             offset="0%" /><stop
             id="stop204"
             stop-opacity="1"
             stop-color="#5e4555"
             offset="100%" /></linearGradient><linearGradient
           gradientUnits="userSpaceOnUse"
           gradientTransform="scale(0.50455107,1.9819599)"
           y2="112.87088"
           x2="998.75494"
           y1="80.848564"
           x1="998.75494"
           id="grad35"
           xlink:href="#grad34" /></defs><path
         inkscape:connector-curvature="0"
         id="path207"
         style="fill:url(#grad35)"
         d="m 504.4907,160.2428 c -2.1116,3.7746 2.228,11.9135 3.8557,14.7901 6.9922,11.7612 10.3073,24.6319 7.5807,38.1753 -0.3238,2.4638 -0.5925,5.4742 -0.1761,7.9262 0.1083,0.6378 0.4269,2.0602 1.0593,2.4284 0.2149,0.125 0.5108,0.1472 0.7526,0.1421 l 0.0511,-6e-4 c 0.3092,-9e-4 0.6485,-0.0425 0.9204,-0.2018 0.862,-0.5049 1.2257,-2.2893 1.3541,-3.1672 0.4439,-3.0333 0.0357,-6.7272 -0.417,-9.7404 l -0.038,-0.2517 0.008,-0.2546 c 0.1208,-4.015 0.1438,-8.3517 -0.4158,-12.3358 -0.1755,-1.2489 -0.6735,-4.1034 -1.5653,-5.074 l -0.8456,-0.9196 0.1086,-1.2446 c 0.9473,-10.8777 -3.1842,-20.3219 -10.0987,-28.5781 l -0.0547,-0.0652 -0.0505,-0.0683 c -0.3614,-0.4881 -1.2064,-1.51 -1.8873,-1.5622 -0.0465,-0.004 -0.0938,-0.002 -0.1414,0.002 z" /><defs
         id="defs209"><linearGradient
           id="grad36"><stop
             id="stop212"
             stop-opacity="1"
             stop-color="#414247"
             offset="0%" /><stop
             id="stop214"
             stop-opacity="1"
             stop-color="#55434f"
             offset="100%" /></linearGradient><linearGradient
           gradientUnits="userSpaceOnUse"
           gradientTransform="scale(0.49134132,2.0352451)"
           y2="109.63722"
           x2="1026.7471"
           y1="79.047974"
           x1="1026.7471"
           id="grad37"
           xlink:href="#grad36" /></defs><path
         inkscape:connector-curvature="0"
         id="path217"
         style="fill:url(#grad37)"
         d="m 504.8093,160.882 c -1.5038,3.6593 2.6025,11.3477 4.0243,13.8611 7.0617,11.8778 10.4006,24.8826 7.653,38.558 -0.3146,2.3984 -0.5814,5.3547 -0.1766,7.7383 0.0689,0.4054 0.3739,1.7938 0.7855,2.0336 0.1063,0.0618 0.3407,0.0675 0.4558,0.0652 l 0.0612,-8e-4 c 0.197,-6e-4 0.4595,-0.0213 0.6353,-0.1239 0.6463,-0.3787 0.9856,-2.1169 1.0797,-2.7601 0.4348,-2.9721 0.0266,-6.6223 -0.4167,-9.5743 l -0.0454,-0.3022 0.009,-0.3053 c 0.1199,-3.9815 0.1446,-8.2888 -0.4104,-12.24 -0.1528,-1.0882 -0.6444,-3.924 -1.4213,-4.769 l -1.0145,-1.1038 0.1301,-1.4933 c 0.934,-10.7257 -3.1522,-20.0259 -9.9686,-28.165 l -0.0655,-0.0783 -0.0604,-0.0819 c -0.1908,-0.2574 -0.807,-1.0142 -1.2546,-1.2583 z" /><defs
         id="defs219"><linearGradient
           id="grad38"><stop
             id="stop222"
             stop-opacity="1"
             stop-color="#515259"
             offset="0%" /><stop
             id="stop224"
             stop-opacity="1"
             stop-color="#4c4049"
             offset="100%" /></linearGradient><linearGradient
           gradientUnits="userSpaceOnUse"
           gradientTransform="scale(0.47865461,2.0891891)"
           y2="106.53503"
           x2="1055.1266"
           y1="77.484367"
           x1="1055.1266"
           id="grad39"
           xlink:href="#grad38" /></defs><path
         inkscape:connector-curvature="0"
         id="path227"
         style="fill:url(#grad39)"
         d="m 505.1106,161.8795 c -0.6151,3.6593 3.0283,10.4837 4.2103,12.5739 2.7184,4.5723 4.8892,9.3107 6.3817,14.1894 0.348,-9.828 -3.6074,-18.4084 -9.9474,-25.9784 l -0.0762,-0.0912 -0.0709,-0.0956 c -0.0958,-0.1292 -0.2874,-0.371 -0.4975,-0.5981 z m 12.0348,32.6089 c 1.1494,6.1226 1.1973,12.4407 -0.0992,18.9054 -0.2911,2.2255 -0.5202,4.779 -0.2554,7.0042 0.0518,0.4379 0.2681,1.7495 0.595,2.1693 0.0527,0.005 0.1142,0.005 0.1536,0.004 l 0.0714,-9e-4 c 0.0678,-3e-4 0.2869,-0.009 0.3504,-0.0462 0.4076,-0.2389 0.7466,-1.9508 0.8053,-2.353 0.4258,-2.9103 0.0179,-6.5174 -0.4164,-9.4079 l -0.053,-0.3524 0.0108,-0.3563 c 0.119,-3.9481 0.1451,-8.2261 -0.4054,-12.1442 -0.0924,-0.659 -0.3685,-2.2844 -0.7571,-3.422 z" /><defs
         id="defs229"><linearGradient
           id="grad40"><stop
             id="stop232"
             stop-opacity="1"
             stop-color="#61646d"
             offset="0%" /><stop
             id="stop234"
             stop-opacity="1"
             stop-color="#41393f"
             offset="100%" /></linearGradient><linearGradient
           gradientUnits="userSpaceOnUse"
           gradientTransform="scale(0.46658693,2.1432233)"
           y2="103.56345"
           x2="1083.6699"
           y1="76.238579"
           x1="1083.6699"
           id="grad41"
           xlink:href="#grad40" /></defs><path
         inkscape:connector-curvature="0"
         id="path237"
         style="fill:url(#grad41)"
         d="m 505.6262,163.3963 c 0.3255,3.6006 3.2301,9.0783 4.2078,10.8108 2.0837,3.5102 3.8472,7.1178 5.2327,10.8108 -0.5995,-8.0422 -4.149,-15.1963 -9.4405,-21.6216 z m 12.295,48.3602 c -0.0944,0.5741 -0.199,1.1489 -0.3143,1.7249 -0.2084,1.6512 -0.6962,6.7706 0.0833,8.4782 0.3526,-0.5916 0.5547,-2.0883 0.6021,-2.6079 0.2205,-2.4205 -0.0289,-5.131 -0.3711,-7.5952 z" /><defs
         id="defs239"><linearGradient
           id="grad42"><stop
             id="stop242"
             stop-opacity="1"
             stop-color="#717683"
             offset="0%" /><stop
             id="stop244"
             stop-opacity="1"
             stop-color="#332e31"
             offset="100%" /></linearGradient><linearGradient
           gradientUnits="userSpaceOnUse"
           gradientTransform="scale(0.692726,1.4435722)"
           y2="125.1386"
           x2="731.3606"
           y1="114.70677"
           x1="731.3606"
           id="grad43"
           xlink:href="#grad42" /></defs><path
         inkscape:connector-curvature="0"
         id="path247"
         style="fill:url(#grad43)"
         d="m 506.6325,165.5875 c 0.7572,2.85 2.3213,5.91 3.6916,8.3347 1.3085,2.2043 2.4914,4.4467 3.5348,6.7244 -1.1818,-5.4335 -3.7378,-10.4326 -7.2264,-15.0591 z" /><defs
         id="defs249"><linearGradient
           id="grad44"><stop
             id="stop252"
             stop-opacity="1"
             stop-color="#838a9c"
             offset="0%" /><stop
             id="stop254"
             stop-opacity="1"
             stop-color="#231f20"
             offset="100%" /></linearGradient><linearGradient
           gradientUnits="userSpaceOnUse"
           gradientTransform="scale(0.72643122,1.3765928)"
           y2="126.47618"
           x2="700.46106"
           y1="123.37403"
           x1="700.46106"
           id="grad45"
           xlink:href="#grad44" /></defs><path
         inkscape:connector-curvature="0"
         id="path257"
         style="fill:url(#grad45)"
         d="m 508.8368,169.8358 c 0.6312,1.3533 1.3291,2.6538 1.978,3.8021 0.0924,0.1559 0.1842,0.3121 0.2755,0.4683 -0.6554,-1.457 -1.4102,-2.88 -2.2535,-4.2704 z" /></g></g><path
     inkscape:connector-curvature="0"
     id="path271"
     style="fill:url(#radialGradient4777);fill-opacity:1;stroke-width:0.845354"
     d="m 306.95403,76.74101 36.35005,36.3503 c 22.18259,1.27344 74.31295,-8.58947 106.9376,-9.29898 34.16803,-4.25509 67.137,-3.40965 98.90641,2.53623 12.6006,1.88996 22.18133,5.41221 28.74212,10.56684 1.27175,-0.77924 2.04669,-2.16021 1.48884,-3.70823 -1.16752,-3.24074 -6.03481,-8.11184 -11.26299,-11.42808 C 534.78883,81.5575 481.72495,72.17872 407.9739,71.24629 378.8742,69.65593 345.20105,71.48764 306.95403,76.74101 Z" /><path
     inkscape:connector-curvature="0"
     id="path281"
     style="fill:url(#grad49);fill-opacity:1;stroke-width:0.845354"
     d="m 353.09792,113.07888 c 25.3088,-1.07089 68.65965,-8.66707 97.14376,-9.28655 34.16803,-4.25509 67.137,-3.40965 98.90641,2.53623 1.72334,0.25851 3.3897,0.54779 5.00002,0.86717 -3.21531,-4.28645 -7.02658,-7.4124 -10.49592,-7.11712 -23.82452,2.02724 -15.21155,-8.72295 -19.41608,-10.59634 -5.5812,-2.48644 -5.16495,2.67444 -5.23418,4.43379 -0.47492,12.05306 -10.02556,-5.14093 -10.08431,-5.18599 -9.18325,-7.04433 -0.57772,5.74621 -17.92751,5.74621 0,-1.85758 -2.19209,-9.07614 -5.0422,-8.96371 -14.39519,0.5674 -4.74083,10.64453 -13.39759,10.64453 -12.84388,0 -4.71978,-16.17949 -12.83737,-11.39698 -9.13727,5.38321 -1.35536,8.5691 -6.81888,10.74064 -15.5825,6.19366 -6.25495,-5.32818 -9.10776,-13.34949 -3.51701,-9.88895 -9.99657,14.40695 -11.01285,14.61397 -15.39584,3.13796 -2.27814,-22.50416 -12.741,-18.3435 -5.09301,2.02505 -4.11392,13.04626 -4.11392,19.97631 -20.03548,0 -5.53994,-4.98759 -11.90875,-12.93341 -6.4137,-8.00212 -4.34834,12.97204 -4.80221,13.30147 -15.32364,11.1274 -17.47456,-19.88407 -17.97569,-20.16845 -10.90422,-6.18841 -0.55945,11.5745 -1.87262,14.75819 -7.40235,17.94568 -7.99164,4.66601 -10.03638,2.60901 -12.13235,-12.20496 -1.80678,-1.71928 -7.3791,7.9394 -0.12722,0.0132 -22.90436,-20.75539 -24.45812,-20.63272 0,21.83135 21.06022,7.90752 15.12634,29.13233 z" /><path
     inkscape:connector-curvature="0"
     id="path283"
     style="fill:#000000;fill-rule:evenodd;stroke-width:0.845354"
     d="M 567.97539,101.18898 C 531.65163,84.78362 494.50619,78.12367 455.38355,74.87261 c -48.09497,-3.9965 -98.50377,-3.10507 -150.52795,2.6807 0,0 50.05197,-8.34195 77.85845,-6.9516 27.8064,1.39035 28.84923,1.04266 28.84923,1.04266 6.02475,-0.11581 12.0495,-0.2318 18.07417,-0.34753 3.59183,0.57949 7.1834,1.15865 10.77514,1.73805 3.70755,0 7.41527,0 11.12282,0 5.44527,0.92685 10.89087,1.85378 16.33613,2.78062 1.85378,0 3.70781,0 5.5615,0 4.8662,0.11573 9.73231,0.23172 14.59842,0.34753 3.24404,1.27454 6.48817,2.54891 9.73222,3.82345 3.59182,0.34744 7.18331,0.69514 10.77513,1.04266 2.78063,0.57941 5.56125,1.15856 8.34196,1.73796 3.24404,0.81095 6.48809,1.62207 9.73222,2.43293 2.54891,1.04291 5.09807,2.08549 7.64698,3.1284 3.47585,0.69514 6.9516,1.39027 10.42744,2.08549 3.36003,1.04283 6.71989,2.08549 10.07992,3.12832 2.3172,1.27437 4.6344,2.54891 6.9516,3.82328 2.08549,1.27454 4.17098,2.54891 6.25646,3.82345 z" /><path
     inkscape:connector-curvature="0"
     id="path293"
     style="fill:url(#grad51);stroke-width:0.845354"
     d="M 567.97539,100.70975 C 531.65163,84.30439 494.50619,77.64435 455.38355,74.39338 407.28858,70.3968 356.87978,71.28822 304.8556,77.07408 c 0,0 50.05197,-8.34196 77.85845,-6.9516 27.8064,1.39027 28.84923,1.04257 28.84923,1.04257 6.02475,-0.11573 12.0495,-0.23171 18.07417,-0.34744 3.59183,0.57941 7.1834,1.15864 10.77514,1.73805 3.70755,0 7.41527,0 11.12282,0 5.44527,0.92685 10.89087,1.85378 16.33613,2.78062 1.85378,0 3.70781,0 5.5615,0 4.8662,0.11573 9.73231,0.23171 14.59842,0.34744 3.24404,1.27463 6.48817,2.54891 9.73222,3.82354 3.59182,0.34744 7.18331,0.69513 10.77513,1.04257 2.78063,0.57949 5.56125,1.15865 8.34196,1.73805 3.24404,0.81087 6.48809,1.62207 9.73222,2.43293 2.54891,1.04291 5.09807,2.08549 7.64698,3.1284 3.47585,0.69514 6.9516,1.39027 10.42744,2.08541 3.36003,1.04291 6.71989,2.08548 10.07992,3.1284 2.3172,1.27428 4.6344,2.54891 6.9516,3.82319 2.08549,1.27463 4.17098,2.549 6.25646,3.82354 z" /><path
     inkscape:connector-curvature="0"
     id="path303"
     style="fill:url(#grad53);stroke-width:0.845354"
     d="m 305.03457,77.22819 c 5.72811,0.70375 8.72126,1.0222 8.9796,0.95533 8.29664,1.29931 16.00255,7.66787 23.11806,19.10576 5.29411,8.25302 10.38906,13.47528 15.28468,15.66669 -13.00721,0.85905 -20.52224,-0.0964 -22.54492,-2.866 -2.92771,-2.54198 -8.59589,-5.15294 -17.00421,-7.83314 0.65321,-1.10065 -0.0474,-3.26594 -2.10155,-6.49612 -2.52372,-5.61949 -4.4343,-11.79708 -5.73166,-18.53252 z" /><path
     inkscape:connector-curvature="0"
     id="path313"
     style="fill:url(#grad55);stroke-width:0.845354"
     d="m 245.101,111.44558 c -13.49607,0.42149 -35.44002,12.1621 -50.30532,21.12294 -22.60814,4.60904 -64.11003,26.74488 -81.80177,55.11462 -71.451512,56.94972 -99.82869,90.74596 -89.367013,99.27017 24.318381,-13.72779 37.77202,-26.73305 40.361,-39.01545 -27.076094,64.87947 -32.905993,101.65279 -17.48978,110.31987 11.260875,15.16032 58.796813,4.84599 142.608333,-30.94342 49.63386,-22.18589 79.23172,-41.91781 88.79386,-59.196 40.42931,-21.64985 58.49553,-48.58282 54.20646,-80.79723 -2.04812,0.0312 -4.98691,-1.0064 -9.37278,-3.89776 -0.44761,0.50349 1.06777,4.25027 -4.92055,1.17107 -1.56306,-0.72557 -3.21462,-1.09989 -5.16951,-1.8952 -0.84873,-1.22551 -6.75623,-5.73699 -10.25076,-8.16603 -0.56892,-0.39546 -3.64043,-2.18017 -6.71101,-6.37051 -3.96826,-5.41491 -8.50561,-11.8123 -9.6815,-13.54045 -2.42092,-3.55827 -5.18506,-8.74282 -10.56058,-13.99619 -6.73401,-6.58142 -14.75988,-12.54835 -18.23741,-15.64192 -4.2917,-2.81833 -7.34503,-4.29871 -9.19543,-6.4793 -2.65677,-3.13128 -3.0076,-5.29505 -2.90624,-7.05921 z" /><path
     inkscape:connector-curvature="0"
     id="path323"
     style="fill:url(#grad57);stroke-width:0.845354"
     d="m 203.64104,196.52597 -2.42616,9.70584 c -10.89256,38.95628 -156.06654,67.63094 -112.895161,13.45364 3.541191,-4.44385 9.504821,-8.38599 16.900911,-11.81221 -0.17609,1.45003 -0.0666,2.28059 0.35826,2.16385 24.59109,-6.74745 38.67477,-1.58681 41.82126,-2.80607 7.19506,-2.7873 34.67845,-4.71462 56.24089,-10.70505 z" /><path
     inkscape:connector-curvature="0"
     id="path333"
     style="fill:url(#grad59);stroke-width:0.845354"
     d="m 311.68522,181.70133 -0.15073,1.65918 c -26.36701,20.0895 4.27327,19.07727 -65.03857,51.58519 -15.85022,7.43395 -21.64875,49.3171 -103.13183,49.3171 -31.42451,0 39.79504,-20.18054 -26.9071,-20.18054 -9.86309,0 -35.671487,46.96803 -59.772528,65.57681 -10.663886,8.23391 -12.088983,20.31495 -6.648708,31.8296 15.827646,10.04805 62.180856,-1.34048 139.070696,-34.17436 49.63386,-22.18589 79.23172,-41.91781 88.79386,-59.196 40.42931,-21.64985 58.49553,-48.58282 54.20646,-80.79723 -2.04812,0.0312 -4.98691,-1.0064 -9.37278,-3.89776 -0.44761,0.50349 1.06777,4.25027 -4.92055,1.17107 -1.56306,-0.72557 -3.21462,-1.09989 -5.16951,-1.8952 -0.15884,-0.22934 -0.49453,-0.57374 -0.95871,-0.99786 z" /><path
     inkscape:connector-curvature="0"
     id="path343"
     style="fill:url(#grad61);stroke-width:0.845354"
     d="m 187.98762,200.10334 c -16.20678,14.23153 -23.61961,31.90763 -19.32453,48.97583 2.41737,5.79372 4.87185,5.24736 7.36277,-1.63948 -0.90478,-20.80982 6.96817,-37.96332 21.92671,-49.45295 -3.27118,0.77806 -6.61904,1.47844 -9.96495,2.1166 z m -24.6249,3.99125 c -17.80341,11.21599 -27.75272,27.10289 -26.46736,44.34693 1.38959,6.12231 3.90114,6.00438 7.53489,-0.35412 2.78156,-21.50065 14.2547,-37.46947 32.14966,-46.00475 -4.69526,0.74932 -9.18545,1.40422 -13.21719,2.01194 z m -46.47224,3.49444 c -21.22523,9.49865 -34.857658,25.11927 -36.368305,43.34485 0.415069,6.22104 2.920106,6.32553 7.514942,0.31303 6.712533,-23.19051 22.707893,-38.84706 44.641283,-44.74433 -4.35239,-0.093 -9.61844,0.11767 -15.78792,1.08645 z m 22.04176,-0.74231 c -20.63221,11.03052 -33.19045,27.67554 -33.35986,46.04356 0.87063,6.1737 3.37634,6.0939 7.51765,-0.23966 4.63634,-21.93862 17.73628,-37.98412 36.75768,-46.16047 -0.96734,0.24228 -1.79478,0.48811 -2.44756,0.74087 -1.2108,0.469 -4.04223,-0.007 -8.46791,-0.3843 z" /><path
     inkscape:connector-curvature="0"
     id="path353"
     style="fill:url(#grad63);stroke-width:0.845354"
     d="m 222.74063,183.36051 8.07212,-10.76288 c 6.78337,27.42996 -70.58097,29.66237 -83.4126,34.63339 -3.14649,1.21926 -17.23017,-3.94138 -41.82126,2.80607 -2.67284,0.73351 7.09945,-35.90675 22.33306,-29.71309 1.79748,0.73081 55.68972,-9.81253 70.61208,-2.69085 4.20885,2.00882 79.37197,-34.35949 44.39689,-5.72727 -5.70437,4.66982 -6.7865,-8.00745 -20.18029,11.45463 z" /><path
     inkscape:connector-curvature="0"
     id="path406"
     style="fill:url(#grad72);stroke-width:0.845354"
     d="m 246.55366,349.61221 c 6.71363,-11.01978 -9.47608,-32.17316 -18.72358,-20.6181 -4.03893,5.04685 -23.24706,0.70739 -44.39782,0.86387 l -0.33543,0.003 c -40.53379,17.07032 -72.21521,27.92407 -95.046271,32.56252 -0.685582,3.14083 3.173371,7.3015 15.029461,13.4812 25.08951,13.07797 31.21968,-13.40215 57.22049,-11.17313 3.04572,0.26122 50.73332,-19.97994 54.51078,-18.43835 5.4396,2.21939 28.3399,14.44042 31.74237,3.31835 z" /><g
     id="g4797"
     transform="matrix(0.84535392,0,0,0.84535392,-130.52432,-114.22495)"><path
       d="m 205.0038,541.3731 -1.6259,12.1949 c 0,71.6108 7.7746,49.9561 -26.0161,112.868 -7.1975,13.4005 -20.6178,57.7451 -12.1255,71.5444 2.9602,4.8099 -4.3977,7.8166 10.4993,28.5945 5.8096,8.1029 1.3076,-38.1696 3.8562,-44.7151 3.0246,-7.7686 18.5077,-57.187 23.182,-56.9103 8.0229,0.4748 27.4332,-78.8049 27.4332,-92.6824 0,-23.5197 -3.7741,-5.0826 -14.5644,-23.368 -0.9769,-1.6554 -8.5255,-6.7059 -10.6388,-7.526 z"
       style="fill:#000000;fill-rule:evenodd"
       id="path355"
       inkscape:connector-curvature="0" /><g
       id="path365"
       style="opacity:1"><path
         style="baseline-shift:baseline;display:inline;overflow:visible;vector-effect:none;enable-background:accumulate;stop-color:#000000;stop-opacity:1"
         d="m 231.8329,550.3161 -13.0082,7.3168 c -0.6349,19.0429 6.7995,6.4922 -2.23,37.3286 -5.8518,19.9857 -22.3064,56.1515 -24.4596,75.6094 -2.6682,24.1109 -23.4303,37.4567 -13.8906,78.0482 5.2603,22.3827 18.6511,24.6776 7.4563,5.482 -2.2618,-3.879 43.9421,-143.0371 48.3621,-160.4869 5.3334,-21.0557 7.4982,-24.6095 -2.23,-43.2981 z"
         id="path3" /><path
         style="baseline-shift:baseline;display:inline;overflow:visible;vector-effect:none;fill:#231f20;enable-background:accumulate;stop-color:#000000;stop-opacity:1"
         d="m 231.94922,549.92578 -13.40235,7.53906 -0.006,0.15821 c -0.31861,9.5562 1.40483,11.29102 2.03906,14.31054 0.63423,3.01953 0.25395,7.5412 -4.25781,22.94922 -2.91873,9.96834 -8.49526,24.00757 -13.61133,37.98438 -5.11607,13.97681 -9.77425,27.88355 -10.85742,37.67187 -1.32589,11.98125 -7.16245,21.31995 -11.50586,32.77539 -4.34342,11.45545 -7.16082,25.02208 -2.37891,45.36914 1.32096,5.6207 3.15242,9.98571 4.99023,13.07813 1.83782,3.09242 3.65089,4.91974 5.08594,5.45508 0.35876,0.13383 0.70097,0.18628 1.01758,0.13476 0.31661,-0.0515 0.60131,-0.21438 0.80664,-0.46875 0.41067,-0.50873 0.53274,-1.31838 0.41016,-2.42383 -0.24516,-2.2109 -1.52414,-5.68198 -4.33399,-10.5 0.002,0.004 -0.0553,-0.23488 -0.0352,-0.59375 0.0202,-0.35887 0.0849,-0.85286 0.1914,-1.46484 0.21305,-1.22396 0.59422,-2.92185 1.1211,-5.02344 1.05374,-4.20317 2.68971,-10.02485 4.73046,-16.95508 4.08151,-13.86045 9.7832,-32.16346 15.69336,-50.89062 11.82034,-37.45431 24.46772,-76.56872 26.69141,-85.34766 2.66539,-10.52268 4.54925,-16.69017 4.54102,-22.60742 -0.008,-5.91725 -1.92345,-11.53216 -6.79493,-20.89062 z m -0.23828,0.78516 c 4.74486,9.15494 6.59358,14.63169 6.60156,20.36718 0.008,5.79573 -1.85543,11.93378 -4.52344,22.4668 -2.19631,8.67087 -14.86243,47.85947 -26.68359,85.31641 -5.91058,18.72847 -11.6116,37.03243 -15.69531,50.90039 -2.04186,6.93398 -3.67896,12.7589 -4.73633,16.97656 -0.52869,2.10883 -0.91343,3.81529 -1.13086,5.06445 -0.10872,0.62459 -0.17499,1.13494 -0.19727,1.53125 -0.0223,0.39632 -0.0342,0.66396 0.10938,0.91016 2.78755,4.77978 4.0335,8.21924 4.26172,10.27734 0.11411,1.02906 -0.0388,1.6939 -0.28907,2.00391 -0.12512,0.15501 -0.2667,0.23661 -0.45703,0.26758 -0.19033,0.031 -0.4358,0.002 -0.72851,-0.10742 -1.17084,-0.43678 -2.99234,-2.17975 -4.79492,-5.21289 -1.80259,-3.03315 -3.61854,-7.34732 -4.92774,-12.91797 -4.75779,-20.24443 -1.96234,-33.64601 2.35742,-45.03907 4.31976,-11.39305 10.19675,-20.7844 11.53907,-32.91406 1.07003,-9.66957 5.71564,-23.57207 10.82812,-37.53906 5.11248,-13.96699 10.68997,-28.00412 13.62305,-38.02148 4.51773,-15.42839 4.93445,-20.04966 4.26758,-23.22461 -0.66236,-3.15346 -2.31288,-4.70192 -2.0254,-14.01758 z"
         id="path4" /></g><path
       d="m 238.337,548.6899 17.0731,15.4471 c 0,33.0608 -1.3624,51.0353 -4.1349,82.9264 -1.5132,17.405 -48.3628,107.7925 -47.8973,115.6553 0.7146,12.0753 -32.3728,2.9163 -18.5599,-42.88 10.5877,-35.1031 31.5678,-44.6916 31.5678,-93.1005 0,-3.5887 3.9852,-17.5935 6.6436,-21.138 -1.1149,-2.694 15.3076,-43.9687 15.3076,-54.6803 z"
       style="fill:#000000;fill-rule:evenodd"
       id="path367"
       inkscape:connector-curvature="0" /><g
       id="path376"
       style="opacity:1"><path
         style="baseline-shift:baseline;display:inline;overflow:visible;vector-effect:none;enable-background:accumulate;stop-color:#000000;stop-opacity:1"
         d="m 247.28,550.3161 12.195,10.569 c 4.5056,14.4496 5.9521,123.4426 -2.0209,137.1886 -11.4508,19.7419 -11.6654,75.8183 -44.3202,75.8183 -33.9336,0 -14.5579,-27.0527 -6.5738,-51.4981 21.2008,-64.91 39.7474,-90.4522 37.4677,-164.9699 -0.1082,-3.5393 0.8657,-4.4977 3.2522,-7.1079 z"
         id="path5" /><path
         style="baseline-shift:baseline;display:inline;overflow:visible;vector-effect:none;fill:#231f20;enable-background:accumulate;stop-color:#000000;stop-opacity:1"
         d="m 247.25781,549.92187 -0.1875,0.20313 c -1.19195,1.30368 -2.04982,2.20879 -2.60351,3.26562 -0.5537,1.05684 -0.77758,2.24658 -0.72266,4.04297 2.2782,74.46876 -16.24399,99.93753 -37.45312,164.87305 -3.98063,12.18771 -10.82883,25.05044 -12.44336,34.95703 -0.80727,4.9533 -0.29507,9.21456 2.61718,12.2168 2.91226,3.00224 8.14886,4.69531 16.66993,4.69531 8.24482,0 14.47388,-3.55819 19.30468,-9.16992 4.83081,-5.61173 8.28506,-13.2689 11.07422,-21.5293 5.57832,-16.52079 8.5182,-35.48891 14.18555,-45.25976 1.03834,-1.79018 1.8788,-5.00826 2.5957,-9.34571 0.71691,-4.33744 1.29591,-9.78468 1.75391,-15.97851 0.91599,-12.38766 1.34299,-27.7573 1.3789,-43.14844 0.0359,-15.39114 -0.31791,-30.80385 -0.96289,-43.27539 -0.64497,-12.47154 -1.56348,-21.96301 -2.71875,-25.66797 l -0.0254,-0.0762 z m 0.0586,0.80079 11.90039,10.31445 c 1.09249,3.5507 2.0397,13.04808 2.68164,25.46094 0.64428,12.45816 0.99878,27.86258 0.96289,43.24414 -0.0359,15.38156 -0.46256,30.74127 -1.37696,43.10742 -0.45719,6.18307 -1.03752,11.61906 -1.75,15.92969 -0.71247,4.31062 -1.57048,7.50601 -2.52539,9.15234 -5.78345,9.97104 -8.67703,28.9104 -14.23242,45.36328 -2.77769,8.22644 -6.21536,15.82227 -10.96679,21.3418 -4.75144,5.51953 -10.79243,8.97265 -18.875,8.97265 -8.44574,0 -13.51456,-1.68937 -16.26368,-4.52343 -2.74912,-2.83406 -3.25586,-6.86491 -2.46289,-11.73047 1.58594,-9.73111 8.4184,-22.61536 12.42188,-34.87305 21.19246,-64.88448 39.76166,-90.49976 37.48047,-165.0664 -0.0533,-1.74291 0.15537,-2.80393 0.6582,-3.76368 0.4685,-0.89421 1.2818,-1.7645 2.34766,-2.92968 z"
         id="path6" /></g><g
       id="path386"
       style="opacity:1"><path
         style="baseline-shift:baseline;display:inline;overflow:visible;vector-effect:none;enable-background:accumulate;stop-color:#000000;stop-opacity:1"
         d="m 255.6615,557.5802 3.8135,3.3049 c 4.5056,14.4496 5.9521,123.4426 -2.0209,137.1886 -2.4278,4.186 -4.35,10.0083 -6.184,16.5802 -7.035,-13.9723 -4.0281,-53.856 -0.3201,-60.5523 7.7049,-13.9145 -0.0949,-66.1363 4.4601,-86.7124 z"
         id="path7" /><path
         style="baseline-shift:baseline;display:inline;overflow:visible;vector-effect:none;fill:#231f20;enable-background:accumulate;stop-color:#000000;stop-opacity:1"
         d="m 255.39258,556.97266 -0.26563,10.39843 c -2.28576,10.37698 -1.4657,28.53669 -1.04883,45.87891 0.20869,8.68136 0.31899,17.15057 -0.10351,24.30859 -0.4225,7.15803 -1.39343,13.01109 -3.27344,16.40625 -0.9769,1.76419 -1.83987,5.50569 -2.53515,10.41797 -0.69529,4.91229 -1.19899,10.97224 -1.36719,17.25977 -0.3364,12.57505 0.64524,26.04127 4.21875,33.13867 l 0.32812,0.6543 0.19727,-0.70508 c 1.83187,-6.56426 3.7531,-12.37018 6.15625,-16.51367 1.03834,-1.79018 1.8788,-5.00826 2.5957,-9.34571 0.71691,-4.33744 1.29591,-9.78468 1.75391,-15.97851 0.91599,-12.38766 1.34299,-27.7573 1.3789,-43.14844 0.0359,-15.39114 -0.31791,-30.80385 -0.96289,-43.27539 -0.64497,-12.47154 -1.56348,-21.96301 -2.71875,-25.66797 l -0.0254,-0.0762 z m 0.53711,1.21484 3.28711,2.84961 c 1.09249,3.5507 2.0397,13.04808 2.68164,25.46094 0.64428,12.45816 0.99878,27.86258 0.96289,43.24414 -0.0359,15.38156 -0.46256,30.74127 -1.37696,43.10742 -0.45719,6.18307 -1.03752,11.61906 -1.75,15.92969 -0.71247,4.31062 -1.57048,7.50601 -2.52539,9.15234 -2.34216,4.03834 -4.19123,9.60007 -5.95312,15.81836 -3.20946,-7.0503 -4.21554,-19.94799 -3.89063,-32.09375 0.16765,-6.26697 0.66979,-12.30748 1.36133,-17.19336 0.69155,-4.88588 1.59361,-8.64065 2.47071,-10.22461 1.97244,-3.56209 2.91741,-9.45451 3.34179,-16.64453 0.42439,-7.19002 0.31425,-15.672 0.10547,-24.35742 -0.41756,-17.37084 -1.21621,-35.57985 1.04297,-45.78516 l 0.006,-0.0273 z"
         id="path8" /></g><path
       d="m 242.4019,565.763 7.3171,8.13 c 0,36.468 -8.2919,123.5614 -21.3469,153.6576 -3.6173,8.3393 -34.5274,75.2006 -35.5632,34.4251 -0.4518,-17.7965 23.044,-62.729 32.3805,-95.1216 4.6488,-16.1283 17.2125,-40.0232 17.2125,-79.2794 0,-7.2706 0,-14.5412 0,-21.8117 z"
       style="fill:url(#grad70)"
       id="path396"
       inkscape:connector-curvature="0" /></g><path
     inkscape:connector-curvature="0"
     id="path4909"
     d="m 196.98492,350.99167 c 0,0 85.6311,-6.0028 145.04344,107.0723 28.07876,0.60411 57.70961,1.22975 89.69081,0.12423 0,0 -90.99471,-89.94779 -211.73592,-109.11306 l 0.18038,-2.20964 -7.93668,-1.44303 z"
     style="fill:url(#linearGradient4917);fill-opacity:1;fill-rule:evenodd;stroke:none;stroke-width:1px;stroke-linecap:butt;stroke-linejoin:miter;stroke-opacity:1"
     sodipodi:nodetypes="ccccccc" /><g
     transform="rotate(83.102845,451.89985,417.3521)"
     id="g4944"><path
       inkscape:connector-curvature="0"
       id="path4940"
       d="m 356.8158,561.29053 c 0,0 -0.49585,30.36208 12.73147,46.25947 l -5.75339,13.06634 c 0,0 -13.31157,-36.75863 -8.69083,-56.00504 l -0.34166,-0.11004 0.27634,-1.27649 z"
       style="fill:url(#linearGradient4942);fill-opacity:1;fill-rule:evenodd;stroke:none;stroke-width:1px;stroke-linecap:butt;stroke-linejoin:miter;stroke-opacity:1" /><g
       id="g4936"><path
         inkscape:connector-curvature="0"
         id="path4924"
         d="m 357.87109,518.65039 a 24.531546,36.075806 0 0 0 -24.53125,36.07617 24.531546,36.075806 0 0 0 24.53125,36.07617 z"
         style="opacity:1;fill:url(#linearGradient4934);fill-opacity:1;fill-rule:evenodd;stroke:none;stroke-width:5;stroke-linecap:round;stroke-linejoin:round;stroke-miterlimit:4;stroke-dasharray:none;stroke-dashoffset:0;stroke-opacity:0.658824" /><path
         inkscape:connector-curvature="0"
         id="path4919"
         d="m 357.87109,518.65039 v 72.15234 a 24.531546,36.075806 0 0 0 24.53321,-36.07617 24.531546,36.075806 0 0 0 -24.53321,-36.07617 z"
         style="opacity:1;fill:url(#linearGradient4932);fill-opacity:1;fill-rule:evenodd;stroke:none;stroke-width:5;stroke-linecap:round;stroke-linejoin:round;stroke-miterlimit:4;stroke-dasharray:none;stroke-dashoffset:0;stroke-opacity:0.658824" /></g></g><g
     id="g4950"
     transform="matrix(0.48355852,-0.59721979,-0.59721979,-0.48355852,407.36274,862.227)"><path
       style="fill:url(#linearGradient4960);fill-opacity:1;fill-rule:evenodd;stroke:none;stroke-width:1px;stroke-linecap:butt;stroke-linejoin:miter;stroke-opacity:1"
       d="m 356.8158,561.29053 c 0,0 -0.49585,30.36208 12.73147,46.25947 l -5.75339,13.06634 c 0,0 -13.31157,-36.75863 -8.69083,-56.00504 l -0.34166,-0.11004 0.27634,-1.27649 z"
       id="path4952"
       inkscape:connector-curvature="0" /><g
       id="g4954"><path
         style="opacity:1;fill:url(#linearGradient4962);fill-opacity:1;fill-rule:evenodd;stroke:none;stroke-width:5;stroke-linecap:round;stroke-linejoin:round;stroke-miterlimit:4;stroke-dasharray:none;stroke-dashoffset:0;stroke-opacity:0.658824"
         d="m 357.87109,518.65039 a 24.531546,36.075806 0 0 0 -24.53125,36.07617 24.531546,36.075806 0 0 0 24.53125,36.07617 z"
         id="path4956"
         inkscape:connector-curvature="0" /><path
         style="opacity:1;fill:url(#linearGradient4964);fill-opacity:1;fill-rule:evenodd;stroke:none;stroke-width:5;stroke-linecap:round;stroke-linejoin:round;stroke-miterlimit:4;stroke-dasharray:none;stroke-dashoffset:0;stroke-opacity:0.658824"
         d="m 357.87109,518.65039 v 72.15234 a 24.531546,36.075806 0 0 0 24.53321,-36.07617 24.531546,36.075806 0 0 0 -24.53321,-36.07617 z"
         id="path4958"
         inkscape:connector-curvature="0" /></g></g><path
     inkscape:connector-curvature="0"
     id="path4966"
     d="m 59.987059,325.94153 -14.430321,18.0379 1.443032,46.89855 6.493645,-35.35429 6.493644,17.31639 3.607581,-17.31639 2.164548,38.24035 9.379709,-33.18974 7.215161,25.97458 2.886064,-28.86064 3.60758,11.54426 c 0,0 -3.60758,-15.15184 18.037898,-18.0379 21.64549,-2.88607 7.21517,-12.98729 7.21517,-12.98729 l -31.025196,5.77212 c 0,0 8.658196,-11.54425 11.544256,-12.26577 2.88607,-0.72151 -16.594869,-0.72151 -16.594869,-0.72151 L 88.847702,316.56182 111.2147,273.27086 Z"
     style="fill:url(#linearGradient4974);fill-opacity:1;fill-rule:evenodd;stroke:none;stroke-width:1px;stroke-linecap:butt;stroke-linejoin:miter;stroke-opacity:1" /></svg>
